REM DIRINDEX 1\2\4,1\2\5,1\3\6,1\3\7,1\3\8
REM DIRNAME cjc094,folder01,folder02,folder03,folder04,folder05,folder06,folder07
TITLE ""
FILE "LV5_089_WORDS.mp3" MP3
  TRACK 01 AUDIO
    TITLE "0:"
    INDEX 01 00:00:00
  TRACK 02 AUDIO
    TITLE "6:cjc094_3088"
    INDEX 01 00:00:01
  TRACK 03 AUDIO
    TITLE "0:"
    INDEX 01 00:03:53
  TRACK 04 AUDIO
    TITLE "7:cjc094_3089"
    INDEX 01 00:04:33
  TRACK 05 AUDIO
    TITLE "0:"
    INDEX 01 00:05:30
  TRACK 06 AUDIO
    TITLE "8:cjc094_3090"
    INDEX 01 00:05:44
  TRACK 07 AUDIO
    TITLE "0:"
    INDEX 01 00:08:30
  TRACK 08 AUDIO
    TITLE "7:cjc094_3091"
    INDEX 01 00:08:68
  TRACK 09 AUDIO
    TITLE "0:"
    INDEX 01 00:09:65
  TRACK 10 AUDIO
    TITLE "8:cjc094_3092"
    INDEX 01 00:10:04
  TRACK 11 AUDIO
    TITLE "0:"
    INDEX 01 00:11:05
  TRACK 12 AUDIO
    TITLE "7:cjc094_3093"
    INDEX 01 00:11:48
  TRACK 13 AUDIO
    TITLE "0:"
    INDEX 01 00:12:60
  TRACK 14 AUDIO
    TITLE "8:cjc094_3094"
    INDEX 01 00:12:71
  TRACK 15 AUDIO
    TITLE "0:"
    INDEX 01 00:14:06
  TRACK 16 AUDIO
    TITLE "7:cjc094_3095"
    INDEX 01 00:14:51
  TRACK 17 AUDIO
    TITLE "0:"
    INDEX 01 00:15:60
  TRACK 18 AUDIO
    TITLE "8:cjc094_3096"
    INDEX 01 00:15:70
  TRACK 19 AUDIO
    TITLE "0:"
    INDEX 01 00:17:47
  TRACK 20 AUDIO
    TITLE "7:cjc094_3097"
    INDEX 01 00:18:17
  TRACK 21 AUDIO
    TITLE "0:"
    INDEX 01 00:19:11
  TRACK 22 AUDIO
    TITLE "8:cjc094_3098"
    INDEX 01 00:19:20
  TRACK 23 AUDIO
    TITLE "0:"
    INDEX 01 00:21:06
  TRACK 24 AUDIO
    TITLE "7:cjc094_3099"
    INDEX 01 00:21:41
  TRACK 25 AUDIO
    TITLE "0:"
    INDEX 01 00:22:38
  TRACK 26 AUDIO
    TITLE "8:cjc094_3100"
    INDEX 01 00:22:52
  TRACK 27 AUDIO
    TITLE "0:"
    INDEX 01 00:25:09
  TRACK 28 AUDIO
    TITLE "7:cjc094_3101"
    INDEX 01 00:25:54
  TRACK 29 AUDIO
    TITLE "0:"
    INDEX 01 00:26:62
  TRACK 30 AUDIO
    TITLE "8:cjc094_3102"
    INDEX 01 00:27:04
  TRACK 31 AUDIO
    TITLE "0:"
    INDEX 01 00:29:17
  TRACK 32 AUDIO
    TITLE "7:cjc094_3103"
    INDEX 01 00:29:62
  TRACK 33 AUDIO
    TITLE "0:"
    INDEX 01 00:31:20
  TRACK 34 AUDIO
    TITLE "8:cjc094_3104"
    INDEX 01 00:31:29
  TRACK 35 AUDIO
    TITLE "0:"
    INDEX 01 00:32:56
  TRACK 36 AUDIO
    TITLE "7:cjc094_3105"
    INDEX 01 00:33:26
  TRACK 37 AUDIO
    TITLE "0:"
    INDEX 01 00:34:59
  TRACK 38 AUDIO
    TITLE "8:cjc094_3106"
    INDEX 01 00:34:63
  TRACK 39 AUDIO
    TITLE "0:"
    INDEX 01 00:36:15
  TRACK 40 AUDIO
    TITLE "7:cjc094_3107"
    INDEX 01 00:36:58
  TRACK 41 AUDIO
    TITLE "0:"
    INDEX 01 00:37:71
  TRACK 42 AUDIO
    TITLE "8:cjc094_3108"
    INDEX 01 00:38:04
  TRACK 43 AUDIO
    TITLE "0:"
    INDEX 01 00:39:23
  TRACK 44 AUDIO
    TITLE "7:cjc094_3109"
    INDEX 01 00:39:68
  TRACK 45 AUDIO
    TITLE "0:"
    INDEX 01 00:41:06
  TRACK 46 AUDIO
    TITLE "8:cjc094_3110"
    INDEX 01 00:41:14
  TRACK 47 AUDIO
    TITLE "0:"
    INDEX 01 00:42:41
  TRACK 48 AUDIO
    TITLE "7:cjc094_3111"
    INDEX 01 00:43:11
  TRACK 49 AUDIO
    TITLE "0:"
    INDEX 01 00:44:14
  TRACK 50 AUDIO
    TITLE "8:cjc094_3112"
    INDEX 01 00:44:22
  TRACK 51 AUDIO
    TITLE "0:"
    INDEX 01 00:47:28
  TRACK 52 AUDIO
    TITLE "7:cjc094_3113"
    INDEX 01 00:47:74
  TRACK 53 AUDIO
    TITLE "0:"
    INDEX 01 00:49:08
  TRACK 54 AUDIO
    TITLE "8:cjc094_3114"
    INDEX 01 00:49:16
  TRACK 55 AUDIO
    TITLE "0:"
    INDEX 01 00:50:21
  TRACK 56 AUDIO
    TITLE "7:cjc094_3115"
    INDEX 01 00:50:66
  TRACK 57 AUDIO
    TITLE "0:"
    INDEX 01 00:52:02
  TRACK 58 AUDIO
    TITLE "8:cjc094_3116"
    INDEX 01 00:52:12
  TRACK 59 AUDIO
    TITLE "0:"
    INDEX 01 00:53:17
  TRACK 60 AUDIO
    TITLE "7:cjc094_3117"
    INDEX 01 00:53:58
  TRACK 61 AUDIO
    TITLE "0:"
    INDEX 01 00:54:66
  TRACK 62 AUDIO
    TITLE "8:cjc094_3118"
    INDEX 01 00:55:04
  TRACK 63 AUDIO
    TITLE "0:"
    INDEX 01 00:56:35
  TRACK 64 AUDIO
    TITLE "7:cjc094_3119"
    INDEX 01 00:56:71
  TRACK 65 AUDIO
    TITLE "0:"
    INDEX 01 00:58:05
  TRACK 66 AUDIO
    TITLE "8:cjc094_3120"
    INDEX 01 00:58:13
  TRACK 67 AUDIO
    TITLE "0:"
    INDEX 01 01:00:12
  TRACK 68 AUDIO
    TITLE "7:cjc094_3121"
    INDEX 01 01:00:59
  TRACK 69 AUDIO
    TITLE "0:"
    INDEX 01 01:02:06
  TRACK 70 AUDIO
    TITLE "8:cjc094_3122"
    INDEX 01 01:02:16
  TRACK 71 AUDIO
    TITLE "0:"
    INDEX 01 01:03:63
  TRACK 72 AUDIO
    TITLE "7:cjc094_3123"
    INDEX 01 01:04:19
  TRACK 73 AUDIO
    TITLE "0:"
    INDEX 01 01:05:26
  TRACK 74 AUDIO
    TITLE "8:cjc094_3124"
    INDEX 01 01:05:42
  TRACK 75 AUDIO
    TITLE "0:"
    INDEX 01 01:06:71
  TRACK 76 AUDIO
    TITLE "7:cjc094_3125"
    INDEX 01 01:07:45
  TRACK 77 AUDIO
    TITLE "0:"
    INDEX 01 01:08:40
  TRACK 78 AUDIO
    TITLE "8:cjc094_3126"
    INDEX 01 01:08:58
  TRACK 79 AUDIO
    TITLE "0:"
    INDEX 01 01:10:08
  TRACK 80 AUDIO
    TITLE "7:cjc094_3127"
    INDEX 01 01:10:59
  TRACK 81 AUDIO
    TITLE "0:"
    INDEX 01 01:11:60
  TRACK 82 AUDIO
    TITLE "8:cjc094_3128"
    INDEX 01 01:11:70
  TRACK 83 AUDIO
    TITLE "0:"
    INDEX 01 01:13:32
  TRACK 84 AUDIO
    TITLE "7:cjc094_3129"
    INDEX 01 01:14:02
  TRACK 85 AUDIO
    TITLE "0:"
    INDEX 01 01:15:11
  TRACK 86 AUDIO
    TITLE "8:cjc094_3130"
    INDEX 01 01:15:21
  TRACK 87 AUDIO
    TITLE "0:"
    INDEX 01 01:16:16
